<svg version="1.0" xmlns="http://www.w3.org/2000/svg" width="50" height="50" viewBox="0 0 270.000000 185.000000"
    preserveAspectRatio="xMidYMid meet">

    <g transform="translate(0.000000,185.000000) scale(0.100000,-0.100000)" fill="#02DE72" stroke="none">
        <path d="M2550 1751 c-69 -48 -395 -273 -725 -500 -330 -227 -607 -421 -615
-431 -8 -10 -35 -43 -58 -74 l-44 -55 81 -127 c45 -69 81 -128 81 -131 0 -2
-39 17 -86 43 -108 59 -169 64 -225 21 -20 -15 -39 -27 -42 -27 -4 0 -7 31 -7
69 l0 69 47 39 46 39 -44 42 c-38 36 -102 65 -493 226 -247 102 -451 184 -453
183 -1 -2 86 -95 193 -208 l195 -204 196 -62 c107 -34 198 -65 201 -68 3 -3
-44 -5 -103 -5 -129 0 -132 8 40 -113 l120 -85 80 30 c94 36 114 39 128 17 8
-13 4 -25 -20 -55 -16 -22 -32 -44 -36 -50 -4 -6 42 -46 108 -93 l115 -83 63
53 c34 30 112 96 172 148 61 52 112 96 114 98 10 7 -11 12 -127 30 -68 10
-124 23 -125 28 -1 6 86 12 238 16 132 4 241 7 242 8 11 6 274 364 270 367 -3
3 -130 -31 -283 -75 -153 -44 -280 -78 -282 -77 -1 2 177 77 397 167 l400 164
191 378 c105 207 188 377 183 377 -4 -1 -64 -40 -133 -89z" />
        <path d="M966 585 c-3 -9 0 -15 9 -15 8 0 15 7 15 15 0 8 -4 15 -9 15 -5 0
-11 -7 -15 -15z" />
    </g>
</svg>